<svg width="1154" height="1077" viewBox="0 0 1154 1077" fill="none" xmlns="http://www.w3.org/2000/svg">
<path d="M109.325 933.946V964.021H147.275V979.546H109.325V1010.22H157.475V1026.35H89.075V917.896H157.475V933.946H109.325ZM212.64 993.496C207.29 993.746 202.79 994.221 199.14 994.921C195.49 995.571 192.565 996.421 190.365 997.471C188.165 998.521 186.59 999.746 185.64 1001.15C184.69 1002.55 184.215 1004.07 184.215 1005.72C184.215 1008.97 185.165 1011.3 187.065 1012.7C189.015 1014.1 191.54 1014.8 194.64 1014.8C198.44 1014.8 201.715 1014.12 204.465 1012.77C207.265 1011.37 209.99 1009.27 212.64 1006.47V993.496ZM170.19 960.121C179.04 952.021 189.69 947.971 202.14 947.971C206.64 947.971 210.665 948.721 214.215 950.221C217.765 951.671 220.765 953.721 223.215 956.371C225.665 958.971 227.515 962.096 228.765 965.746C230.065 969.396 230.715 973.396 230.715 977.746V1026.35H222.315C220.565 1026.35 219.215 1026.1 218.265 1025.6C217.315 1025.05 216.565 1023.97 216.015 1022.37L214.365 1016.82C212.415 1018.57 210.515 1020.12 208.665 1021.47C206.815 1022.77 204.89 1023.87 202.89 1024.77C200.89 1025.67 198.74 1026.35 196.44 1026.8C194.19 1027.3 191.69 1027.55 188.94 1027.55C185.69 1027.55 182.69 1027.12 179.94 1026.27C177.19 1025.37 174.815 1024.05 172.815 1022.3C170.815 1020.55 169.265 1018.37 168.165 1015.77C167.065 1013.17 166.515 1010.15 166.515 1006.7C166.515 1004.75 166.84 1002.82 167.49 1000.92C168.14 998.971 169.19 997.121 170.64 995.371C172.14 993.621 174.065 991.971 176.415 990.421C178.765 988.871 181.64 987.521 185.04 986.371C188.49 985.221 192.49 984.296 197.04 983.596C201.59 982.846 206.79 982.396 212.64 982.246V977.746C212.64 972.596 211.54 968.796 209.34 966.346C207.14 963.846 203.965 962.596 199.815 962.596C196.815 962.596 194.315 962.946 192.315 963.646C190.365 964.346 188.64 965.146 187.14 966.046C185.64 966.896 184.265 967.671 183.015 968.371C181.815 969.071 180.465 969.421 178.965 969.421C177.665 969.421 176.565 969.096 175.665 968.446C174.765 967.746 174.04 966.946 173.49 966.046L170.19 960.121ZM295.112 964.396C294.612 965.196 294.087 965.771 293.537 966.121C292.987 966.421 292.287 966.571 291.437 966.571C290.537 966.571 289.562 966.321 288.512 965.821C287.512 965.321 286.337 964.771 284.987 964.171C283.637 963.521 282.087 962.946 280.337 962.446C278.637 961.946 276.612 961.696 274.262 961.696C270.612 961.696 267.737 962.471 265.637 964.021C263.587 965.571 262.562 967.596 262.562 970.096C262.562 971.746 263.087 973.146 264.137 974.296C265.237 975.396 266.662 976.371 268.412 977.221C270.212 978.071 272.237 978.846 274.487 979.546C276.737 980.196 279.012 980.921 281.312 981.721C283.662 982.521 285.962 983.446 288.212 984.496C290.462 985.496 292.462 986.796 294.212 988.396C296.012 989.946 297.437 991.821 298.487 994.021C299.587 996.221 300.137 998.871 300.137 1001.97C300.137 1005.67 299.462 1009.1 298.112 1012.25C296.812 1015.35 294.862 1018.05 292.262 1020.35C289.662 1022.6 286.437 1024.37 282.587 1025.67C278.787 1026.92 274.387 1027.55 269.387 1027.55C266.737 1027.55 264.137 1027.3 261.587 1026.8C259.087 1026.35 256.662 1025.7 254.312 1024.85C252.012 1024 249.862 1023 247.862 1021.85C245.912 1020.7 244.187 1019.45 242.687 1018.1L246.962 1011.05C247.512 1010.2 248.162 1009.55 248.912 1009.1C249.662 1008.65 250.612 1008.42 251.762 1008.42C252.912 1008.42 253.987 1008.75 254.987 1009.4C256.037 1010.05 257.237 1010.75 258.587 1011.5C259.937 1012.25 261.512 1012.95 263.312 1013.6C265.162 1014.25 267.487 1014.57 270.287 1014.57C272.487 1014.57 274.362 1014.32 275.912 1013.82C277.512 1013.27 278.812 1012.57 279.812 1011.72C280.862 1010.87 281.612 1009.9 282.062 1008.8C282.562 1007.65 282.812 1006.47 282.812 1005.27C282.812 1003.47 282.262 1002 281.162 1000.85C280.112 999.696 278.687 998.696 276.887 997.846C275.137 996.996 273.112 996.246 270.812 995.596C268.562 994.896 266.237 994.146 263.837 993.346C261.487 992.546 259.162 991.621 256.862 990.571C254.612 989.471 252.587 988.096 250.787 986.446C249.037 984.796 247.612 982.771 246.512 980.371C245.462 977.971 244.937 975.071 244.937 971.671C244.937 968.521 245.562 965.521 246.812 962.671C248.062 959.821 249.887 957.346 252.287 955.246C254.737 953.096 257.762 951.396 261.362 950.146C265.012 948.846 269.212 948.196 273.962 948.196C279.262 948.196 284.087 949.071 288.437 950.821C292.787 952.571 296.412 954.871 299.312 957.721L295.112 964.396ZM382.515 949.396L340.59 1047.5C340.04 1048.8 339.315 1049.77 338.415 1050.42C337.565 1051.12 336.24 1051.47 334.44 1051.47H320.64L335.04 1020.57L303.915 949.396H320.19C321.64 949.396 322.765 949.746 323.565 950.446C324.415 951.146 325.04 951.946 325.44 952.846L341.79 992.746C342.34 994.096 342.79 995.446 343.14 996.796C343.54 998.146 343.915 999.521 344.265 1000.92C344.715 999.521 345.165 998.146 345.615 996.796C346.065 995.396 346.565 994.021 347.115 992.671L362.565 952.846C362.965 951.846 363.615 951.021 364.515 950.371C365.465 949.721 366.515 949.396 367.665 949.396H382.515ZM489.477 972.121C489.477 980.071 488.152 987.371 485.502 994.021C482.852 1000.67 479.127 1006.4 474.327 1011.2C469.527 1016 463.752 1019.72 457.002 1022.37C450.252 1025.02 442.752 1026.35 434.502 1026.35H393.177V917.896H434.502C442.752 917.896 450.252 919.246 457.002 921.946C463.752 924.596 469.527 928.321 474.327 933.121C479.127 937.871 482.852 943.571 485.502 950.221C488.152 956.871 489.477 964.171 489.477 972.121ZM468.777 972.121C468.777 966.171 467.977 960.846 466.377 956.146C464.827 951.396 462.552 947.396 459.552 944.146C456.602 940.846 453.002 938.321 448.752 936.571C444.552 934.821 439.802 933.946 434.502 933.946H413.427V1010.3H434.502C439.802 1010.3 444.552 1009.42 448.752 1007.67C453.002 1005.92 456.602 1003.42 459.552 1000.17C462.552 996.871 464.827 992.871 466.377 988.171C467.977 983.421 468.777 978.071 468.777 972.121ZM558.027 957.046C558.027 958.346 557.802 959.621 557.352 960.871C556.902 962.121 556.302 963.146 555.552 963.946L519.027 1012.1H556.902V1026.35H497.502V1018.62C497.502 1017.77 497.702 1016.77 498.102 1015.62C498.502 1014.42 499.102 1013.3 499.902 1012.25L536.802 963.571H499.677V949.396H558.027V957.046ZM613.781 1010.6C617.531 1010.6 620.681 1010.15 623.231 1009.25C625.781 1008.35 627.806 1007.15 629.306 1005.65C630.856 1004.15 631.956 1002.4 632.606 1000.4C633.306 998.396 633.656 996.271 633.656 994.021C633.656 991.671 633.281 989.571 632.531 987.721C631.781 985.821 630.606 984.221 629.006 982.921C627.406 981.571 625.331 980.546 622.781 979.846C620.281 979.146 617.256 978.796 613.706 978.796H593.381V1010.6H613.781ZM593.381 933.496V964.846H609.431C616.331 964.846 621.531 963.596 625.031 961.096C628.581 958.596 630.356 954.621 630.356 949.171C630.356 943.521 628.756 939.496 625.556 937.096C622.356 934.696 617.356 933.496 610.556 933.496H593.381ZM610.556 917.896C617.656 917.896 623.731 918.571 628.781 919.921C633.831 921.271 637.956 923.196 641.156 925.696C644.406 928.196 646.781 931.221 648.281 934.771C649.781 938.321 650.531 942.321 650.531 946.771C650.531 949.321 650.156 951.771 649.406 954.121C648.656 956.421 647.481 958.596 645.881 960.646C644.331 962.646 642.331 964.471 639.881 966.121C637.481 967.771 634.606 969.171 631.256 970.321C646.156 973.671 653.606 981.721 653.606 994.471C653.606 999.071 652.731 1003.32 650.981 1007.22C649.231 1011.12 646.681 1014.5 643.331 1017.35C639.981 1020.15 635.856 1022.35 630.956 1023.95C626.056 1025.55 620.456 1026.35 614.156 1026.35H573.206V917.896H610.556ZM717.561 979.021C717.561 976.621 717.211 974.371 716.511 972.271C715.861 970.121 714.861 968.246 713.511 966.646C712.161 965.046 710.436 963.796 708.336 962.896C706.286 961.946 703.886 961.471 701.136 961.471C695.786 961.471 691.561 962.996 688.461 966.046C685.411 969.096 683.461 973.421 682.611 979.021H717.561ZM682.236 990.196C682.536 994.146 683.236 997.571 684.336 1000.47C685.436 1003.32 686.886 1005.7 688.686 1007.6C690.486 1009.45 692.611 1010.85 695.061 1011.8C697.561 1012.7 700.311 1013.15 703.311 1013.15C706.311 1013.15 708.886 1012.8 711.036 1012.1C713.236 1011.4 715.136 1010.62 716.736 1009.77C718.386 1008.92 719.811 1008.15 721.011 1007.45C722.261 1006.75 723.461 1006.4 724.611 1006.4C726.161 1006.4 727.311 1006.97 728.061 1008.12L733.386 1014.87C731.336 1017.27 729.036 1019.3 726.486 1020.95C723.936 1022.55 721.261 1023.85 718.461 1024.85C715.711 1025.8 712.886 1026.47 709.986 1026.87C707.136 1027.27 704.361 1027.47 701.661 1027.47C696.311 1027.47 691.336 1026.6 686.736 1024.85C682.136 1023.05 678.136 1020.42 674.736 1016.97C671.336 1013.47 668.661 1009.17 666.711 1004.07C664.761 998.921 663.786 992.971 663.786 986.221C663.786 980.971 664.636 976.046 666.336 971.446C668.036 966.796 670.461 962.771 673.611 959.371C676.811 955.921 680.686 953.196 685.236 951.196C689.836 949.196 695.011 948.196 700.761 948.196C705.611 948.196 710.086 948.971 714.186 950.521C718.286 952.071 721.811 954.346 724.761 957.346C727.711 960.296 730.011 963.946 731.661 968.296C733.361 972.596 734.211 977.521 734.211 983.071C734.211 985.871 733.911 987.771 733.311 988.771C732.711 989.721 731.561 990.196 729.861 990.196H682.236ZM788.763 993.496C783.413 993.746 778.913 994.221 775.263 994.921C771.613 995.571 768.688 996.421 766.488 997.471C764.288 998.521 762.713 999.746 761.763 1001.15C760.813 1002.55 760.338 1004.07 760.338 1005.72C760.338 1008.97 761.288 1011.3 763.188 1012.7C765.138 1014.1 767.663 1014.8 770.763 1014.8C774.563 1014.8 777.838 1014.12 780.588 1012.77C783.388 1011.37 786.113 1009.27 788.763 1006.47V993.496ZM746.313 960.121C755.163 952.021 765.813 947.971 778.263 947.971C782.763 947.971 786.788 948.721 790.338 950.221C793.888 951.671 796.888 953.721 799.338 956.371C801.788 958.971 803.638 962.096 804.888 965.746C806.188 969.396 806.838 973.396 806.838 977.746V1026.35H798.438C796.688 1026.35 795.338 1026.1 794.388 1025.6C793.438 1025.05 792.688 1023.97 792.138 1022.37L790.488 1016.82C788.538 1018.57 786.638 1020.12 784.788 1021.47C782.938 1022.77 781.013 1023.87 779.013 1024.77C777.013 1025.67 774.863 1026.35 772.563 1026.8C770.313 1027.3 767.813 1027.55 765.063 1027.55C761.813 1027.55 758.813 1027.12 756.063 1026.27C753.313 1025.37 750.938 1024.05 748.938 1022.3C746.938 1020.55 745.388 1018.37 744.288 1015.77C743.188 1013.17 742.638 1010.15 742.638 1006.7C742.638 1004.75 742.963 1002.82 743.613 1000.92C744.263 998.971 745.313 997.121 746.763 995.371C748.263 993.621 750.188 991.971 752.538 990.421C754.888 988.871 757.763 987.521 761.163 986.371C764.613 985.221 768.613 984.296 773.163 983.596C777.713 982.846 782.913 982.396 788.763 982.246V977.746C788.763 972.596 787.663 968.796 785.463 966.346C783.263 963.846 780.088 962.596 775.938 962.596C772.938 962.596 770.438 962.946 768.438 963.646C766.488 964.346 764.763 965.146 763.263 966.046C761.763 966.896 760.388 967.671 759.138 968.371C757.938 969.071 756.588 969.421 755.088 969.421C753.788 969.421 752.688 969.096 751.788 968.446C750.888 967.746 750.163 966.946 749.613 966.046L746.313 960.121ZM890.585 949.396V1026.35H879.26C876.81 1026.35 875.26 1025.22 874.61 1022.97L873.335 1016.82C870.185 1020.02 866.71 1022.62 862.91 1024.62C859.11 1026.57 854.635 1027.55 849.485 1027.55C845.285 1027.55 841.56 1026.85 838.31 1025.45C835.11 1024 832.41 1021.97 830.21 1019.37C828.01 1016.77 826.335 1013.7 825.185 1010.15C824.085 1006.55 823.535 1002.6 823.535 998.296V949.396H842.06V998.296C842.06 1003 843.135 1006.65 845.285 1009.25C847.485 1011.8 850.76 1013.07 855.11 1013.07C858.31 1013.07 861.31 1012.37 864.11 1010.97C866.91 1009.52 869.56 1007.55 872.06 1005.05V949.396H890.585ZM934.603 1027.55C927.903 1027.55 922.753 1025.67 919.153 1021.92C915.603 1018.12 913.828 1012.9 913.828 1006.25V963.271H905.953C904.953 963.271 904.103 962.946 903.403 962.296C902.703 961.646 902.353 960.671 902.353 959.371V952.021L914.728 949.996L918.628 928.996C918.878 927.996 919.353 927.221 920.053 926.671C920.753 926.121 921.653 925.846 922.753 925.846H932.353V950.071H952.903V963.271H932.353V1004.97C932.353 1007.37 932.928 1009.25 934.078 1010.6C935.278 1011.95 936.903 1012.62 938.953 1012.62C940.103 1012.62 941.053 1012.5 941.803 1012.25C942.603 1011.95 943.278 1011.65 943.828 1011.35C944.428 1011.05 944.953 1010.77 945.403 1010.52C945.853 1010.22 946.303 1010.07 946.753 1010.07C947.303 1010.07 947.753 1010.22 948.103 1010.52C948.453 1010.77 948.828 1011.17 949.228 1011.72L954.778 1020.72C952.078 1022.97 948.978 1024.67 945.478 1025.82C941.978 1026.97 938.353 1027.55 934.603 1027.55ZM1034.66 949.396L992.738 1047.5C992.188 1048.8 991.463 1049.77 990.563 1050.42C989.713 1051.12 988.388 1051.47 986.588 1051.47H972.788L987.188 1020.57L956.063 949.396H972.338C973.788 949.396 974.913 949.746 975.713 950.446C976.563 951.146 977.188 951.946 977.588 952.846L993.938 992.746C994.488 994.096 994.938 995.446 995.288 996.796C995.688 998.146 996.063 999.521 996.413 1000.92C996.863 999.521 997.313 998.146 997.763 996.796C998.213 995.396 998.713 994.021 999.263 992.671L1014.71 952.846C1015.11 951.846 1015.76 951.021 1016.66 950.371C1017.61 949.721 1018.66 949.396 1019.81 949.396H1034.66Z" fill="#43C223"/>
<path d="M762.747 602.647C724.768 768.85 605.623 818.369 548.59 821.049C486.295 818.674 373.864 778.542 334.434 602.647C310.683 492.33 344.461 335.818 406.061 213.069C464.118 89.365 549.995 -0.575784 548.59 0.0962706C547.185 -0.575784 633.063 89.365 691.127 213.069C752.727 335.818 786.505 492.33 762.747 602.647Z" fill="url(#paint0_linear_420_528)"/>
<path opacity="0.9" d="M766.119 667.56C676.697 788.904 574.957 829.572 523.247 823.05C475.745 812.953 368.644 743.335 429.755 511.063C469.758 366.571 626.477 207.638 781.79 154.187C936.172 92.9689 1064.91 122.104 1062.25 120.515C1062.43 119.385 998.222 229.098 939.181 344.424C878.703 461.873 825.031 585.806 766.119 667.56Z" fill="url(#paint1_linear_420_528)"/>
<path opacity="0.9" d="M305.766 677.085C398.227 796.138 503.732 831.887 557.443 822.219C606.793 809.136 718.224 731.69 655.509 497.448C614.438 351.849 452.22 198.208 291.133 152.455C131.032 98.7056 -2.72249 135.967 0.0421035 134.195C-0.141184 133.049 66.1708 241.647 127.106 356.294C189.523 473.025 244.853 596.79 305.766 677.085Z" fill="url(#paint2_linear_420_528)"/>
<defs>
<linearGradient id="paint0_linear_420_528" x1="548.942" y1="518.349" x2="587" y2="-52.5241" gradientUnits="userSpaceOnUse">
<stop stop-color="#8FC36C"/>
<stop offset="0.4017" stop-color="#46962B"/>
<stop offset="1" stop-color="#96DB83"/>
</linearGradient>
<linearGradient id="paint1_linear_420_528" x1="579.791" y1="921.379" x2="801.798" y2="112.637" gradientUnits="userSpaceOnUse">
<stop stop-color="#759966"/>
<stop offset="0.4017" stop-color="#42962B"/>
<stop offset="1" stop-color="#74E265"/>
</linearGradient>
<linearGradient id="paint2_linear_420_528" x1="-0.00448207" y1="473.488" x2="674.166" y2="473.488" gradientUnits="userSpaceOnUse">
<stop stop-color="#A5C68A"/>
<stop offset="0.4017" stop-color="#37962B"/>
<stop offset="1" stop-color="#14C400"/>
</linearGradient>
</defs>
</svg>
